#!OML:ASF E:\Style4\Style4.ASF
:FULLY-SPECIFIED
:DEGREES
959
root -0.11031 17.3669 -2.80418 1.35352 0.65425 1.91564
lowerback 12.0641 2.10789 -0.948517
upperback 6.18667 2.68761 0.162478
thorax -0.342336 1.32129 0.376222
lowerneck 0.917362 -4.73381 -7.22246
upperneck 3.16782 -6.43612 4.78193
head 1.26922 -3.25211 2.71095
rclavicle 1.09332e-015 1.11319e-014
rhumerus -344.367 16.1829 -427.334
rradius 76.1275
rwrist 16.2865
rhand -34.8499 24.9568
rfingers 7.12502
rthumb -7.99993 -4.8718
lclavicle 1.09332e-015 1.11319e-014
lhumerus 18.5756 -25.5356 65.4373
lradius 81.8008
lwrist -12.6975
lhand -26.0793 27.1444
lfingers 7.12502
lthumb 0.469116 57.1236
rfemur -23.8727 -0.884823 16.0725
rtibia 43.4873
rfoot -19.7327 -11.1845
rtoes -10.79
lfemur -21.2938 1.18312 -21.2667
ltibia 41.7496
lfoot -21.3398 7.47518
ltoes -12.6776
960
root -0.112847 17.3643 -2.80553 1.27909 0.627112 1.97889
lowerback 12.0786 2.10967 -1.06315
upperback 6.23495 2.67807 0.163994
thorax -0.304601 1.31376 0.443749
lowerneck 0.903296 -4.76388 -7.21783
upperneck 3.03099 -6.47218 4.76097
head 1.2289 -3.26914 2.70324
rclavicle 1.66979e-014 -1.07344e-014
rhumerus -344.318 16.4987 -427.183
rradius 75.9704
rwrist 15.9487
rhand -35.1886 24.4766
rfingers 7.12502
rthumb -8.32675 -5.33928
lclavicle 1.66979e-014 -1.07344e-014
lhumerus 18.6468 -25.5245 65.4744
lradius 81.5041
lwrist -12.9872
lhand -26.1992 26.8608
lfingers 7.12502
lthumb 0.353342 56.8403
rfemur -23.8743 -0.881158 16.009
rtibia 43.6481
rfoot -19.807 -11.1589
rtoes -10.7158
lfemur -21.2066 1.19308 -21.3268
ltibia 41.7481
lfoot -21.3256 7.38266
ltoes -12.1342
961
root -0.114063 17.3604 -2.80661 1.35129 0.628141 2.23609
lowerback 12.0107 2.11267 -1.33039
upperback 6.2005 2.65409 0.0799936
thorax -0.311051 1.29746 0.511122
lowerneck 0.916474 -4.7832 -7.17271
upperneck 2.93431 -6.49699 4.75735
head 1.19512 -3.28054 2.69452
rclavicle -2.32578e-014 1.23246e-014
rhumerus -344.386 16.8219 -427.053
rradius 75.9007
rwrist 15.7504
rhand -35.3138 24.608
rfingers 7.12502
rthumb -8.4476 -5.20308
lclavicle -2.32578e-014 1.23246e-014
lhumerus 18.5924 -25.5694 65.4726
lradius 81.3544
lwrist -13.3437
lhand -26.392 26.7067
lfingers 7.12502
lthumb 0.16718 56.6864
rfemur -24.0633 -0.985177 15.715
rtibia 43.8465
rfoot -19.8948 -11.0604
rtoes -10.6752
lfemur -21.2524 1.13806 -21.6215
ltibia 41.6974
lfoot -21.322 7.45496
ltoes -12.2404
962
root -0.11667 17.3562 -2.80918 1.54294 0.673239 2.65894
lowerback 11.8561 2.13716 -1.77692
upperback 6.14652 2.64184 -0.0384695
thorax -0.297031 1.2838 0.644516
lowerneck 0.956201 -4.81512 -7.16938
upperneck 2.77092 -6.5405 4.80548
head 1.14035 -3.30121 2.71188
rclavicle -1.87852e-014 1.90833e-014
rhumerus -344.496 17.0743 -426.813
rradius 75.9641
rwrist 15.6403
rhand -35.4574 24.9034
rfingers 7.12502
rthumb -8.58622 -4.90205
lclavicle -1.87852e-014 1.90833e-014
lhumerus 18.5494 -25.6898 65.4044
lradius 81.341
lwrist -13.5807
lhand -26.4478 26.6353
lfingers 7.12502
lthumb 0.113215 56.615
rfemur -24.3873 -1.15745 15.237
rtibia 44.0586
rfoot -19.9741 -10.9941
rtoes -10.993
lfemur -21.432 1.03519 -22.1023
ltibia 41.6437
lfoot -21.2955 7.52398
ltoes -12.2564
963
root -0.11893 17.3523 -2.81242 1.69355 0.652911 2.85247
lowerback 11.7544 2.1674 -1.95656
upperback 6.09751 2.66427 -0.123757
thorax -0.297376 1.2927 0.656784
lowerneck 1.04839 -4.86345 -7.12361
upperneck 2.51823 -6.60687 4.83516
head 1.04683 -3.33305 2.71731
rclavicle -5.36719e-015 7.55382e-015
rhumerus -344.624 17.2967 -426.59
rradius 76.1154
rwrist 15.7065
rhand -35.4644 25.0087
rfingers 7.12502
rthumb -8.59295 -4.79644
lclavicle -5.36719e-015 7.55382e-015
lhumerus 18.4976 -25.8397 65.2436
lradius 81.4148
lwrist -13.5372
lhand -26.4549 26.2753
lfingers 7.12502
lthumb 0.106351 56.255
rfemur -24.6618 -1.2156 15.0294
rtibia 44.2233
rfoot -20.017 -10.9735
rtoes -11.0751
lfemur -21.5911 1.06301 -22.3224
ltibia 41.6251
lfoot -21.2849 7.56414
ltoes -12.5473
964
root -0.121053 17.3508 -2.81479 1.77884 0.585264 2.88264
lowerback 11.6914 2.20508 -1.99857
upperback 6.0747 2.71071 -0.141825
thorax -0.289335 1.31528 0.657874
lowerneck 1.12944 -4.89331 -7.15254
upperneck 2.27723 -6.64963 4.92684
head 0.963228 -3.35354 2.75757
rclavicle 1.17283e-014 5.1684e-015
rhumerus -344.832 17.4358 -426.441
rradius 76.3923
rwrist 16.0632
rhand -35.1362 25.5606
rfingers 7.12502
rthumb -8.27624 -4.25726
lclavicle 1.17283e-014 5.1684e-015
lhumerus 18.4306 -25.9621 65.1044
lradius 81.5463
lwrist -13.3429
lhand -26.3951 26.1387
lfingers 7.12502
lthumb 0.164185 56.1184
rfemur -24.8196 -1.20531 15.0104
rtibia 44.2876
rfoot -19.9852 -11.0019
rtoes -11.3101
lfemur -21.7154 1.10507 -22.3459
ltibia 41.6811
lfoot -21.3706 7.61404
ltoes -12.6538
965
root -0.123929 17.35 -2.81789 1.76231 0.550913 2.68462
lowerback 11.7625 2.21912 -1.81213
upperback 6.06634 2.74676 -0.0831648
thorax -0.332213 1.33661 0.606959
lowerneck 1.14605 -4.919 -7.22506
upperneck 2.08873 -6.68395 5.0298
head 0.909439 -3.36982 2.8076
rclavicle 6.26172e-015 -7.15625e-015
rhumerus -345.101 17.6659 -426.15
rradius 76.7733
rwrist 16.3036
rhand -34.6394 26.2872
rfingers 7.12502
rthumb -7.79669 -3.54909
lclavicle 6.26172e-015 -7.15625e-015
lhumerus 18.3221 -26.1222 64.9373
lradius 81.7532
lwrist -13.1287
lhand -26.3826 26.2676
lfingers 7.12502
lthumb 0.176174 56.2473
rfemur -24.8042 -1.13909 15.2519
rtibia 44.2482
rfoot -19.966 -10.9954
rtoes -11.0932
lfemur -21.7847 1.13796 -22.0981
ltibia 41.8057
lfoot -21.435 7.44946
ltoes -12.0854
966
root -0.127567 17.3484 -2.81918 1.64989 0.484558 2.23011
lowerback 11.902 2.22809 -1.3368
upperback 6.10237 2.80547 0.0122059
thorax -0.354801 1.37431 0.427961
lowerneck 1.04315 -4.9584 -7.23359
upperneck 1.99888 -6.72947 5.09427
head 0.904753 -3.39065 2.82821
rclavicle -1.10325e-014 9.93923e-015
rhumerus -345.187 18.023 -425.608
rradius 77.0899
rwrist 16.2736
rhand -34.8952 26.5124
rfingers 7.12502
rthumb -8.0436 -3.3145
lclavicle -1.10325e-014 9.93923e-015
lhumerus 18.2881 -26.319 64.6187
lradius 81.97
lwrist -12.9149
lhand -26.3954 26.3315
lfingers 7.12502
lthumb 0.163851 56.3112
rfemur -24.662 -0.937343 15.7839
rtibia 44.1595
rfoot -20.0026 -11.0284
rtoes -10.4493
lfemur -21.7711 1.22568 -21.5578
ltibia 41.9619
lfoot -21.5117 7.29011
ltoes -11.4556
967
root -0.128892 17.3482 -2.81932 1.60221 0.452064 2.00422
lowerback 11.9705 2.23198 -1.0539
upperback 6.12243 2.83885 0.0331238
thorax -0.359345 1.39649 0.285048
lowerneck 0.987754 -5.01101 -7.14496
upperneck 1.86976 -6.79207 5.04247
head 0.871523 -3.42006 2.79333
rclavicle 7.15625e-015 1.51076e-014
rhumerus -345.237 18.424 -425.104
rradius 77.43
rwrist 16.2711
rhand -34.8155 26.5961
rfingers 7.12502
rthumb -7.96669 -3.23376
lclavicle 7.15625e-015 1.51076e-014
lhumerus 18.2607 -26.5409 64.2475
lradius 82.1656
lwrist -12.6546
lhand -26.3101 26.2557
lfingers 7.12502
lthumb 0.246196 56.2353
rfemur -24.5897 -0.877966 16.0482
rtibia 44.0905
rfoot -19.9504 -11.0904
rtoes -10.5301
lfemur -21.8117 1.26873 -21.2989
ltibia 42.1135
lfoot -21.5542 7.35746
ltoes -11.9717
968
root -0.128951 17.346 -2.81976 1.63529 0.447382 2.06889
lowerback 11.964 2.22918 -1.09864
upperback 6.10397 2.83012 0.0075263
thorax -0.375822 1.39166 0.284463
lowerneck 1.05319 -5.00932 -7.10754
upperneck 1.6391 -6.78838 4.99453
head 0.782626 -3.41746 2.77529
rclavicle -2.79292e-014 4.37326e-015
rhumerus -345.396 18.8913 -424.694
rradius 77.8925
rwrist 16.1628
rhand -34.1951 26.6012
rfingers 7.12502
rthumb -7.36787 -3.25054
lclavicle -2.79292e-014 4.37326e-015
lhumerus 18.1272 -26.6923 63.9499
lradius 82.3233
lwrist -12.4307
lhand -26.2326 26.2313
lfingers 7.12502
lthumb 0.32105 56.2108
rfemur -24.6321 -0.911874 15.9746
rtibia 44.0798
rfoot -19.9089 -11.0845
rtoes -10.8022
lfemur -21.9049 1.28903 -21.3822
ltibia 42.2286
lfoot -21.5907 7.45376
ltoes -12.6582
969
root -0.130812 17.3423 -2.82216 1.67369 0.44776 2.07033
lowerback 11.9893 2.22509 -1.10655
upperback 6.06475 2.82308 -0.000341838
thorax -0.430282 1.38835 0.27961
lowerneck 1.11491 -4.98105 -7.0889
upperneck 1.44464 -6.75131 5.03174
head 0.708192 -3.39825 2.78942
rclavicle 1.47101e-014 1.03368e-014
rhumerus -345.623 19.3094 -424.306
rradius 78.3639
rwrist 15.7308
rhand -34.1305 26.2484
rfingers 7.12502
rthumb -7.30551 -3.60547
lclavicle 1.47101e-014 1.03368e-014
lhumerus 18.0023 -26.8476 63.6393
lradius 82.4808
lwrist -12.1864
lhand -26.0627 26.2505
lfingers 7.12502
lthumb 0.485219 56.2297
rfemur -24.7168 -0.936348 15.9819
rtibia 44.1257
rfoot -19.9289 -11.0517
rtoes -10.7483
lfemur -22.005 1.28645 -21.3766
ltibia 42.3124
lfoot -21.5961 7.47077
ltoes -12.7927
970
root -0.134453 17.3394 -2.82342 1.6813 0.472091 2.07259
lowerback 11.9971 2.22383 -1.10795
upperback 6.05851 2.82098 -0.0117285
thorax -0.44048 1.38751 0.268404
lowerneck 1.1284 -4.97053 -7.09702
upperneck 1.28197 -6.73608 5.10514
head 0.656306 -3.38974 2.81845
rclavicle 3.16068e-014 -7.95139e-015
rhumerus -345.771 19.6839 -423.909
rradius 78.7428
rwrist 15.2397
rhand -34.0241 26.0412
rfingers 7.12502
rthumb -7.20284 -3.81626
lclavicle 3.16068e-014 -7.95139e-015
lhumerus 17.9755 -27.0779 63.1929
lradius 82.6392
lwrist -11.8997
lhand -25.8932 26.177
lfingers 7.12502
lthumb 0.648924 56.1557
rfemur -24.768 -0.968931 15.9902
rtibia 44.213
rfoot -20.0289 -10.9877
rtoes -10.3644
lfemur -22.0486 1.28307 -21.368
ltibia 42.3578
lfoot -21.5893 7.59332
ltoes -13.0497
971
root -0.13752 17.3378 -2.82243 1.70889 0.542654 2.10626
lowerback 11.9501 2.18945 -1.14075
upperback 6.06012 2.7729 -0.0321693
thorax -0.41329 1.36313 0.273406
lowerneck 1.03163 -4.97485 -7.10901
upperneck 1.19521 -6.73461 5.14271
head 0.647393 -3.38742 2.83166
rclavicle -1.74931e-014 7.15625e-015
rhumerus -345.778 20.1871 -423.436
rradius 79.0402
rwrist 14.7862
rhand -33.8523 25.7641
rfingers 7.12502
rthumb -7.03697 -4.09893
lclavicle -1.74931e-014 7.15625e-015
lhumerus 17.9024 -27.2732 62.6994
lradius 82.7999
lwrist -11.764
lhand -25.7042 26.1708
lfingers 7.12502
lthumb 0.831395 56.1489
rfemur -24.8191 -1.06345 15.9651
rtibia 44.3001
rfoot -20.0877 -10.9832
rtoes -10.4439
lfemur -22.0968 1.23876 -21.3972
ltibia 42.4108
lfoot -21.5959 7.62451
ltoes -13.0194
